<svg xmlns="http://www.w3.org/2000/svg" version="1.1" xmlns:xlink="http://www.w3.org/1999/xlink" xmlns:svgjs="http://svgjs.com/svgjs" width="1440" height="560" preserveAspectRatio="none" viewBox="0 0 1440 560"><g mask="url(&quot;#SvgjsMask1020&quot;)" fill="none"><path d="M1562.65 194.01C1442.42 195.2 1338.77 324.82 1099.26 322.81 859.75 320.8 782.74-26.89 635.87-48.89" stroke="rgba(233, 98, 98, 1)" stroke-width="2"></path><path d="M1547.68 68.51C1379.05 69.85 1222.45 236.64 894.42 236.51 566.38 236.38 419.62-46.17 241.15-52.53" stroke="rgba(233, 98, 98, 1)" stroke-width="2"></path><path d="M1530.31 411.68C1356.73 405.95 1157.53 149.13 892.08 137.28 626.63 125.43 665.23-43.28 572.97-50.03" stroke="rgba(233, 98, 98, 1)" stroke-width="2"></path><path d="M1488.67 383.21C1328.14 381.57 1199.79 216.78 870.45 209.61 541.1 202.44 421.96-65.71 252.22-72.26" stroke="rgba(233, 98, 98, 1)" stroke-width="2"></path><path d="M1687.17 162.19C1582.66 161.94 1481.1 92.19 1275.04 92.19 1068.97 92.19 1070.5 162.37 862.91 162.19 655.32 162.01 562.21-4.81 450.78-8.12" stroke="rgba(233, 98, 98, 1)" stroke-width="2"></path></g><defs><mask id="SvgjsMask1020"><rect width="1440" height="560" fill="#ffffff"></rect></mask></defs></svg>